# Alias OBJ Model File
# Exported from SketchUp, (c) 2000-2012 Trimble Navigation Limited
# File units = millimeters

mtllib paneel.mtl

g Mesh1 Model

usemtl FrontColor
v 0 0 -0
vt 0 0
vn 0 -1 -0
v 0 0 -800
vt 0 31.4961
v 400 0 -800
vt -15.748 31.4961
v 400 0 -0
vt -15.748 0
f 1/1/1 2/2/1 3/3/1 4/4/1 

vt -31.4961 0
vn -1 0 -0
v 0 50 -0
vt 0 1.9685
v 0 50 -800
vt -31.4961 1.9685
f 2/5/2 1/1/2 5/6/2 6/7/2 

vn 0 0 1
vt 15.748 0
v 400 50 -0
vt 15.748 1.9685
f 1/1/3 4/8/3 7/9/3 5/6/3 

vn 1 0 -0
vt 31.4961 0
v 400 50 -800
vt 31.4961 1.9685
f 4/1/4 3/10/4 8/11/4 7/6/4 

vn 0 0 -1
vt -15.748 1.9685
f 3/4/5 2/1/5 6/6/5 8/12/5 

vn 0 1 -0
vt 15.748 31.4961
f 6/2/6 5/1/6 7/8/6 8/13/6 

